<svg width="169" height="22" viewBox="0 0 169 22" fill="none" xmlns="http://www.w3.org/2000/svg">
<path d="M10.8778 21.168C8.9365 21.168 7.18183 20.7387 5.61383 19.88C4.06449 19.0213 2.84183 17.836 1.94583 16.324C1.06849 14.7933 0.629828 13.0853 0.629828 11.2C0.629828 9.31467 1.06849 7.616 1.94583 6.104C2.84183 4.57333 4.07383 3.37867 5.64183 2.52C7.20983 1.66133 8.9645 1.232 10.9058 1.232C12.3618 1.232 13.7058 1.47467 14.9378 1.96C16.1698 2.44533 17.2152 3.15467 18.0738 4.088L16.7578 5.404C15.2272 3.85467 13.2952 3.08 10.9618 3.08C9.4125 3.08 8.00316 3.43467 6.73383 4.144C5.4645 4.85333 4.46583 5.824 3.73783 7.056C3.02849 8.288 2.67383 9.66933 2.67383 11.2C2.67383 12.7307 3.02849 14.112 3.73783 15.344C4.46583 16.576 5.4645 17.5467 6.73383 18.256C8.00316 18.9653 9.4125 19.32 10.9618 19.32C13.3138 19.32 15.2458 18.536 16.7578 16.968L18.0738 18.284C17.2152 19.2173 16.1605 19.936 14.9098 20.44C13.6778 20.9253 12.3338 21.168 10.8778 21.168ZM29.5748 6.16C31.4228 6.16 32.8882 6.70133 33.9708 7.784C35.0722 8.848 35.6228 10.4067 35.6228 12.46V21H33.6348V12.656C33.6348 11.1253 33.2522 9.95867 32.4868 9.156C31.7215 8.35333 30.6295 7.952 29.2108 7.952C27.6242 7.952 26.3642 8.428 25.4308 9.38C24.5162 10.3133 24.0588 11.6107 24.0588 13.272V21H22.0708V0.223999H24.0588V8.848C24.6002 7.98933 25.3468 7.32667 26.2988 6.86C27.2508 6.39333 28.3428 6.16 29.5748 6.16ZM47.3747 19.376C48.2894 19.376 49.1294 19.2173 49.8947 18.9C50.6787 18.564 51.3414 18.0787 51.8827 17.444L53.0027 18.732C52.3494 19.516 51.5374 20.1133 50.5667 20.524C49.5961 20.9347 48.5227 21.14 47.3467 21.14C45.8347 21.14 44.4907 20.8227 43.3147 20.188C42.1387 19.5347 41.2241 18.6387 40.5707 17.5C39.9174 16.3613 39.5907 15.0733 39.5907 13.636C39.5907 12.1987 39.8987 10.9107 40.5147 9.772C41.1494 8.63333 42.0174 7.74667 43.1187 7.112C44.2201 6.47733 45.4707 6.16 46.8707 6.16C48.1774 6.16 49.3534 6.45867 50.3987 7.056C51.4627 7.65333 52.3027 8.484 52.9187 9.548C53.5534 10.612 53.8894 11.8253 53.9267 13.188L41.8307 15.54C42.2041 16.7347 42.8761 17.6773 43.8467 18.368C44.8361 19.04 46.0121 19.376 47.3747 19.376ZM46.8707 7.868C45.8441 7.868 44.9201 8.11067 44.0987 8.596C43.2961 9.06267 42.6614 9.72533 42.1947 10.584C41.7467 11.424 41.5227 12.3947 41.5227 13.496C41.5227 13.776 41.5321 13.9813 41.5507 14.112L51.9387 12.096C51.7147 10.864 51.1454 9.856 50.2307 9.072C49.3161 8.26933 48.1961 7.868 46.8707 7.868ZM64.0772 21.14C62.6212 21.14 61.3145 20.8227 60.1572 20.188C59.0185 19.5533 58.1225 18.6667 57.4692 17.528C56.8158 16.3707 56.4892 15.0733 56.4892 13.636C56.4892 12.1987 56.8158 10.9107 57.4692 9.772C58.1225 8.63333 59.0185 7.74667 60.1572 7.112C61.3145 6.47733 62.6212 6.16 64.0772 6.16C65.3465 6.16 66.4758 6.412 67.4652 6.916C68.4732 7.40133 69.2665 8.12 69.8452 9.072L68.3612 10.08C67.8758 9.352 67.2598 8.81067 66.5132 8.456C65.7665 8.08267 64.9545 7.896 64.0772 7.896C63.0132 7.896 62.0518 8.13867 61.1932 8.624C60.3532 9.09067 59.6905 9.76267 59.2052 10.64C58.7385 11.5173 58.5052 12.516 58.5052 13.636C58.5052 14.7747 58.7385 15.7827 59.2052 16.66C59.6905 17.5187 60.3532 18.1907 61.1932 18.676C62.0518 19.1427 63.0132 19.376 64.0772 19.376C64.9545 19.376 65.7665 19.1987 66.5132 18.844C67.2598 18.4893 67.8758 17.948 68.3612 17.22L69.8452 18.228C69.2665 19.18 68.4732 19.908 67.4652 20.412C66.4572 20.8973 65.3278 21.14 64.0772 21.14ZM78.9918 13.608L75.5198 16.8V21H73.5318V0.223999H75.5198V14.308L84.3118 6.272H86.7758L80.4758 12.292L87.3638 21H84.9278L78.9918 13.608Z" fill="black"/>
<path d="M112.272 1.064C114.587 1.064 116.388 1.74533 117.676 3.108C118.964 4.452 119.608 6.40267 119.608 8.96V21H115.072V9.1C115.072 7.71867 114.708 6.68267 113.98 5.992C113.271 5.28267 112.328 4.928 111.152 4.928C109.864 4.928 108.838 5.30133 108.072 6.048C107.307 6.776 106.924 7.88667 106.924 9.38V21H102.388V9.1C102.388 7.71867 102.052 6.68267 101.38 5.992C100.708 5.28267 99.7935 4.928 98.6362 4.928C97.3668 4.928 96.3495 5.30133 95.5842 6.048C94.8188 6.776 94.4362 7.88667 94.4362 9.38V21H89.9002V1.4H94.2962V3.808C94.8935 2.93067 95.6868 2.25867 96.6762 1.792C97.6655 1.30667 98.8042 1.064 100.092 1.064C101.436 1.064 102.612 1.316 103.62 1.82C104.628 2.30533 105.403 3.01467 105.944 3.948C106.616 3.01467 107.494 2.30533 108.576 1.82C109.678 1.316 110.91 1.064 112.272 1.064ZM139.06 5.936V21H134.888V19.264C133.805 20.5707 132.237 21.224 130.184 21.224C128.765 21.224 127.477 20.9067 126.32 20.272C125.181 19.6373 124.285 18.732 123.632 17.556C122.979 16.38 122.652 15.0173 122.652 13.468C122.652 11.9187 122.979 10.556 123.632 9.38C124.285 8.204 125.181 7.29867 126.32 6.664C127.477 6.02933 128.765 5.712 130.184 5.712C132.107 5.712 133.609 6.31867 134.692 7.532V5.936H139.06ZM130.94 17.64C132.041 17.64 132.956 17.2667 133.684 16.52C134.412 15.7547 134.776 14.7373 134.776 13.468C134.776 12.1987 134.412 11.1907 133.684 10.444C132.956 9.67867 132.041 9.296 130.94 9.296C129.82 9.296 128.896 9.67867 128.168 10.444C127.44 11.1907 127.076 12.1987 127.076 13.468C127.076 14.7373 127.44 15.7547 128.168 16.52C128.896 17.2667 129.82 17.64 130.94 17.64ZM152.176 20.272C151.747 20.5893 151.215 20.832 150.58 21C149.964 21.1493 149.32 21.224 148.648 21.224C146.837 21.224 145.447 20.7667 144.476 19.852C143.505 18.9373 143.02 17.5933 143.02 15.82V2.604H147.388V6.272H151.112V9.632H147.388V15.764C147.388 16.3987 147.547 16.8933 147.864 17.248C148.181 17.584 148.639 17.752 149.236 17.752C149.908 17.752 150.505 17.5653 151.028 17.192L152.176 20.272ZM161.766 17.724C162.55 17.724 163.241 17.612 163.838 17.388C164.454 17.1453 165.023 16.772 165.546 16.268L167.87 18.788C166.451 20.412 164.379 21.224 161.654 21.224C159.955 21.224 158.453 20.8973 157.146 20.244C155.839 19.572 154.831 18.648 154.122 17.472C153.413 16.296 153.058 14.9613 153.058 13.468C153.058 11.9933 153.403 10.668 154.094 9.492C154.803 8.29733 155.765 7.37333 156.978 6.72C158.21 6.048 159.591 5.712 161.122 5.712C162.559 5.712 163.866 6.02 165.042 6.636C166.218 7.23333 167.151 8.11067 167.842 9.268C168.551 10.4067 168.906 11.76 168.906 13.328L157.762 15.484C158.079 16.2307 158.574 16.7907 159.246 17.164C159.937 17.5373 160.777 17.724 161.766 17.724ZM161.122 9.016C160.021 9.016 159.125 9.37067 158.434 10.08C157.743 10.7893 157.379 11.7693 157.342 13.02L164.678 11.592C164.473 10.808 164.053 10.1827 163.418 9.716C162.783 9.24933 162.018 9.016 161.122 9.016Z" fill="#65BBED"/>
</svg>
